<svg xmlns="http://www.w3.org/2000/svg" version="1.1" xmlns:xlink="http://www.w3.org/1999/xlink" xmlns:svgjs="http://svgjs.dev/svgjs" viewBox="0 0 800 800"><defs><linearGradient x1="50%" y1="0%" x2="50%" y2="100%" id="ffflurry-grad" gradientTransform="rotate(270)"><stop stop-color="hsl(0, 0%, 100%)" stop-opacity="1" offset="0%"></stop><stop stop-color="hsl(30, 100%, 50%)" stop-opacity="1" offset="45%"></stop><stop stop-color="hsl(30, 100%, 70%)" stop-opacity="1" offset="100%"></stop></linearGradient></defs><rect width="100%" height="100%" fill="hsl(0, 0%, 100%)"></rect><g fill="url(#ffflurry-grad)"><rect width="387" height="2" x="-98.5" y="267" rx="1" transform="rotate(41, 95, 268)" opacity="0.53"></rect><rect width="292" height="2" x="589" y="643" rx="1" transform="rotate(41, 735, 644)" opacity="0.30"></rect><rect width="1337" height="2" x="-571.5" y="78" rx="1" transform="rotate(41, 97, 79)" opacity="0.32"></rect><rect width="791" height="2" x="-337.5" y="669" rx="1" transform="rotate(41, 58, 670)" opacity="0.21"></rect><rect width="532" height="2" x="254" y="273" rx="1" transform="rotate(41, 520, 274)" opacity="0.33"></rect><rect width="348" height="2" x="35" y="445" rx="1" transform="rotate(41, 209, 446)" opacity="0.99"></rect><rect width="814" height="2" x="-58" y="320" rx="1" transform="rotate(41, 349, 321)" opacity="0.77"></rect><rect width="788" height="2" x="-10" y="93" rx="1" transform="rotate(41, 384, 94)" opacity="0.14"></rect><rect width="815" height="2" x="180.5" y="714" rx="1" transform="rotate(41, 588, 715)" opacity="0.46"></rect><rect width="434" height="2" x="27" y="154" rx="1" transform="rotate(41, 244, 155)" opacity="0.93"></rect><rect width="859" height="2" x="-42.5" y="502" rx="1" transform="rotate(41, 387, 503)" opacity="0.60"></rect><rect width="673" height="2" x="381.5" y="241" rx="1" transform="rotate(41, 718, 242)" opacity="0.54"></rect><rect width="413" height="2" x="399.5" y="69" rx="1" transform="rotate(41, 606, 70)" opacity="0.85"></rect><rect width="1223" height="2" x="-301.5" y="687" rx="1" transform="rotate(41, 310, 688)" opacity="0.15"></rect><rect width="149" height="2" x="-9.5" y="455" rx="1" transform="rotate(41, 65, 456)" opacity="0.53"></rect><rect width="1093" height="2" x="-105.5" y="706" rx="1" transform="rotate(41, 441, 707)" opacity="0.92"></rect><rect width="1520" height="2" x="-149" y="485" rx="1" transform="rotate(41, 611, 486)" opacity="0.66"></rect><rect width="288" height="2" x="38" y="679" rx="1" transform="rotate(41, 182, 680)" opacity="0.19"></rect></g></svg>